<svg width="101" height="110" viewBox="0 0 101 110" fill="none" xmlns="http://www.w3.org/2000/svg">
<rect y="10" width="100" height="100" rx="10" fill="#0066FF"/>
<path d="M26 87C26 87 21 87 21 82C21 77 26 62 51 62C76 62 81 77 81 82C81 87 76 87 76 87H26ZM51 57C54.9782 57 58.7936 55.4196 61.6066 52.6066C64.4196 49.7936 66 45.9782 66 42C66 38.0218 64.4196 34.2064 61.6066 31.3934C58.7936 28.5804 54.9782 27 51 27C47.0218 27 43.2064 28.5804 40.3934 31.3934C37.5804 34.2064 36 38.0218 36 42C36 45.9782 37.5804 49.7936 40.3934 52.6066C43.2064 55.4196 47.0218 57 51 57V57Z" fill="white"/>
<path d="M82 14C78.0366 14.0478 74.249 15.6435 71.4463 18.4463C68.6435 21.249 67.0478 25.0366 67 29C67.0478 32.9634 68.6435 36.751 71.4463 39.5537C74.249 42.3565 78.0366 43.9522 82 44C85.9634 43.9522 89.751 42.3565 92.5537 39.5537C95.3565 36.751 96.9522 32.9634 97 29C96.9522 25.0366 95.3565 21.249 92.5537 18.4463C89.751 15.6435 85.9634 14.0478 82 14V14ZM90.5714 30.0714H83.0714V37.5714H80.9286V30.0714H73.4286V27.9286H80.9286V20.4286H83.0714V27.9286H90.5714V30.0714Z" fill="white"/>
</svg>
