<svg width="150" height="150" viewBox="0 0 150 150" fill="none" xmlns="http://www.w3.org/2000/svg">
<g clip-path="url(#clip0)">
<path d="M32.9125 61.0313C35.8368 52.184 41.4804 44.4863 49.0382 39.0362C56.5961 33.5861 65.6821 30.6621 75 30.6812C85.5625 30.6812 95.1125 34.4313 102.612 40.5688L124.438 18.75C111.138 7.15625 94.0938 0 75 0C45.4375 0 19.9875 16.8625 7.75 41.5625L32.9125 61.0313Z" fill="#EA4335"/>
<path d="M100.25 112.581C93.4377 116.975 84.7877 119.319 75.0002 119.319C65.7194 119.338 56.6677 116.437 49.1267 111.027C41.5856 105.617 35.9373 97.9725 32.9814 89.175L7.73145 108.344C13.9267 120.883 23.5144 131.434 35.4053 138.797C47.2963 146.161 61.014 150.042 75.0002 150C93.3314 150 110.844 143.481 123.963 131.25L100.256 112.581H100.25Z" fill="#34A853"/>
<path d="M123.962 131.25C137.681 118.45 146.588 99.4 146.588 75C146.588 70.5625 145.906 65.7937 144.887 61.3625H75V90.3437H115.225C113.244 100.087 107.913 107.631 100.256 112.581L123.962 131.25Z" fill="#4A90E2"/>
<path d="M32.981 89.175C31.452 84.6057 30.6752 79.8184 30.681 75C30.681 70.1125 31.4622 65.4188 32.9122 61.0313L7.74975 41.5625C2.60211 51.9543 -0.0514762 63.4032 -0.000248722 75C-0.000248722 87 2.781 98.3125 7.731 108.344L32.981 89.175Z" fill="#FBBC05"/>
</g>
<defs>
<clipPath id="clip0">
<rect width="150" height="150" fill="white"/>
</clipPath>
</defs>
</svg>
