<svg width="175" height="175" viewBox="0 0 175 175" fill="none" xmlns="http://www.w3.org/2000/svg">
<circle cx="87.5" cy="87.5" r="87.5" fill="white"/>
<path d="M37.5 50H106.25C113.125 50 118.75 55.625 118.75 62.5V112.5C118.75 119.375 113.125 125 106.25 125H37.5C30.625 125 25 119.375 25 112.5V62.5C25 55.625 30.625 50 37.5 50Z" fill="#0066FF"/>
<path d="M150 121.875L118.75 103.125V71.875L150 53.125V121.875Z" fill="#0066FF"/>
<path d="M89.2375 89.1781L69.3531 100.716C67.6656 101.694 65.5 100.509 65.5 98.5375V75.4625C65.5 73.4937 67.6625 72.3062 69.3531 73.2875L89.2375 84.825C89.6214 85.0441 89.9405 85.3609 90.1624 85.7431C90.3843 86.1254 90.5012 86.5595 90.5012 87.0016C90.5012 87.4436 90.3843 87.8777 90.1624 88.26C89.9405 88.6422 89.6214 88.959 89.2375 89.1781V89.1781Z" fill="white"/>
</svg>
